<?xml version="1.0" standalone="no"?>
<!DOCTYPE svg PUBLIC "-//W3C//DTD SVG 20010904//EN"
 "http://www.w3.org/TR/2001/REC-SVG-20010904/DTD/svg10.dtd">
<svg version="1.0" xmlns="http://www.w3.org/2000/svg"
 width="200.000000pt" height="200.000000pt" viewBox="0 0 200.000000 200.000000"
 preserveAspectRatio="xMidYMid meet">

<g transform="translate(0.000000,200.000000) scale(0.100000,-0.100000)"
fill="#000000" stroke="none">
<path d="M437 1588 c-22 -18 -36 -59 -27 -83 4 -11 22 -33 40 -50 l31 -30 35
37 c41 45 44 79 9 113 -26 27 -62 32 -88 13z"/>
<path d="M710 1576 c0 -28 39 -72 75 -86 15 -6 159 -10 346 -10 l319 0 0 -385
0 -385 75 0 75 0 0 445 0 445 -445 0 -445 0 0 -24z"/>
<path d="M907 1370 c-45 -36 -31 -107 19 -94 47 12 98 -59 137 -195 l23 -81
-18 -87 c-10 -49 -16 -98 -13 -111 7 -29 47 -45 88 -34 45 12 55 33 34 77 -34
70 -17 184 45 312 42 85 78 118 131 118 34 0 44 5 56 26 18 32 8 75 -19 84
-61 20 -154 -63 -216 -192 -21 -45 -42 -82 -45 -82 -4 -1 -12 27 -19 62 -32
162 -128 256 -203 197z"/>
<path d="M411 848 l-1 -468 445 0 c245 0 445 3 445 8 -1 4 -8 18 -16 32 -9 14
-13 17 -10 6 5 -14 2 -17 -10 -12 -8 3 -200 6 -425 6 l-409 0 2 418 3 417 43
3 42 3 0 -371 c0 -293 3 -371 13 -368 9 4 13 93 15 393 2 377 2 388 -16 372
-11 -10 -35 -17 -61 -17 -34 0 -43 4 -51 23 -5 13 -9 -156 -9 -445z"/>
<path d="M818 1183 c7 -3 16 -2 19 1 4 3 -2 6 -13 5 -11 0 -14 -3 -6 -6z"/>
<path d="M861 1176 c2 -2 18 -6 34 -10 22 -5 26 -4 15 4 -14 9 -59 15 -49 6z"/>
<path d="M709 1168 c-15 -51 -41 -325 -36 -386 7 -89 26 -103 21 -15 -3 37 4
131 13 208 l18 140 49 9 c112 20 202 -54 176 -145 -11 -38 -5 -37 14 3 32 64
10 125 -56 159 -36 19 -53 21 -122 16 -49 -3 -74 -2 -65 4 10 6 10 9 2 9 -7 0
-13 -1 -14 -2z"/>
<path d="M982 1150 c9 -14 19 -38 22 -53 10 -44 -20 -132 -59 -176 -58 -63
-168 -81 -178 -28 -2 12 -5 3 -6 -20 -1 -38 2 -43 24 -49 96 -24 227 82 242
196 6 45 -17 120 -44 142 -15 12 -15 11 -1 -12z"/>
<path d="M612 1147 c-6 -7 -12 -26 -14 -42 -3 -26 0 -30 20 -27 22 3 22 1 22
-100 0 -57 -7 -158 -17 -225 -14 -100 -14 -125 -4 -137 31 -37 133 -2 117 40
-4 11 -10 14 -14 8 -4 -6 -17 -16 -29 -23 -62 -32 -68 -3 -43 194 26 202 24
255 -8 271 -33 16 -36 22 -22 39 7 8 10 15 7 15 -2 0 -9 -6 -15 -13z"/>
<path d="M1540 532 c-64 -5 -90 -32 -90 -94 l0 -48 74 0 74 0 -5 68 c-3 37 -5
69 -6 72 -1 3 -22 4 -47 2z"/>
<path d="M703 463 c87 -2 227 -2 310 0 84 1 13 3 -158 3 -171 0 -239 -2 -152
-3z"/>
<path d="M1170 456 c0 -2 7 -6 15 -10 8 -3 15 -1 15 4 0 6 -7 10 -15 10 -8 0
-15 -2 -15 -4z"/>
</g>
</svg>
